# xmcd
#
# Track frame offsets:
#	150
#	16168
#	33514
#	39096
#
# Disc length: 581 seconds
#
# Revision: 0
# Processed by: cddbd v1.5.1PL0 Copyright (c) Steve Scherf et al.
# Submitted via: dBpowerAMP V4.0
#
DISCID=20024304
DTITLE=Katrina Elam - 4 Song Sampler
DYEAR=2004
DGENRE=Country
TTITLE0=No End In Sight
TTITLE1=I Won't Say Goodbye
TTITLE2=Unbreakable (verse and chorus)
TTITLE3=Prelude to the Kiss (verse and Chorus)
EXTD=
EXTT0=
EXTT1=
EXTT2=
EXTT3=
PLAYORDER=
